<svg xmlns="http://www.w3.org/2000/svg" fill="none" viewBox="0 0 128 128">
  <path d="M50.4 78.5a75.1 75.1 0 0 0-28.5 6.9l24.2-65.7c.7-2 1.9-3.2 3.4-3.2h29c1.5 0 2.7 1.2 3.4 3.2l24.2 65.7c-9.6-2.4-19.5-3.7-29.7-3.7-8.6 0-17.2 1.2-25.5 3.5zm-6.9 20.2A113.5 113.5 0 0 0 22 118.4l8.4-22.9c7.9-2.1 16.1-3.2 24.2-3.2 8.1 0 16.3 1.1 24.2 3.2l8.4 22.9c-11.5-3.7-23.7-5.8-36.2-5.8s-24.7 2.1-36.2 5.8z" fill="#16a34a"/>
  <path d="M64 4C32.2 4 6.2 30 6.2 61.8s26 57.8 57.8 57.8 57.8-26 57.8-57.8S95.8 4 64 4zm0 109.6C35.2 113.6 12.2 90.6 12.2 61.8S35.2 10 64 10s51.8 23 51.8 51.8-23 51.8-51.8 51.8z" fill="#22c55e"/>
</svg>